<svg id="Layer_1" data-name="Layer 1" xmlns="http://www.w3.org/2000/svg" viewBox="0 0 39.24 40"><defs><style>.cls-1{fill:#00c45d;}</style></defs><title>selected</title><path class="cls-1" d="M39.62,14.18V33.11a3.74,3.74,0,0,1-2.93,3.65A3.68,3.68,0,0,1,33.09,40H6.6A3.66,3.66,0,0,1,3,36.67,3.72,3.72,0,0,1,.38,33.11v-19a3.68,3.68,0,0,1,3-3.64V3A2.94,2.94,0,0,1,6.33,0H33.76a3,3,0,0,1,3,3v7.55A3.73,3.73,0,0,1,39.62,14.18Z" transform="translate(-0.38)"/><path d="M36.73,10.53V3a3,3,0,0,0-3-3H6.33A2.94,2.94,0,0,0,3.4,3v7.51a3.68,3.68,0,0,0-3,3.64v19A3.72,3.72,0,0,0,3,36.67,3.66,3.66,0,0,0,6.6,40H33.09a3.68,3.68,0,0,0,3.6-3.24,3.74,3.74,0,0,0,2.93-3.65V14.18A3.73,3.73,0,0,0,36.73,10.53ZM4.69,3A1.67,1.67,0,0,1,6.33,1.29H33.76A1.65,1.65,0,0,1,35.4,3v7.51a3.68,3.68,0,0,0-3.11,3.64v18.4H7.62V14.18a3.6,3.6,0,0,0-2.93-3.65ZM3,35.38a2.56,2.56,0,0,1-1.42-2.27V14.18A2.38,2.38,0,0,1,4,11.78a2.37,2.37,0,0,1,2.35,2.4V32.62A3.66,3.66,0,0,0,3,35.38Zm30.05,3.33H6.6a2.4,2.4,0,0,1,0-4.8H33.09a2.4,2.4,0,0,1,0,4.8Zm5.24-5.55a2.4,2.4,0,0,1-1.69,2.31,3.68,3.68,0,0,0-3-2.8V14.18a2.36,2.36,0,1,1,4.71,0Z" transform="translate(-0.38)"/></svg>